#!OML:ASF \\sashay\E\Suitcase\Project 1\Capture day 1\Session 1\Male1.ASF
:FULLY-SPECIFIED
:DEGREES
1332
root -1.9471 17.5973 9.92845 6.51002 11.8079 -0.301171
lowerback -0.663364 -1.76971 3.49371
upperback -0.35306 -2.37481 3.32886
thorax 0.00890966 -1.18603 1.44227
lowerneck -11.4576 -3.36534 -6.0254
upperneck 35.276 -0.783987 -7.02688
head 14.0304 -2.02524 -1.89322
rclavicle 5.96354e-015 1.59028e-015
rhumerus -14.6243 -16.2159 -71.4244
rradius 19.1231
rwrist -14.72
rhand -13.0547 18.0101
rfingers 7.12502
rthumb 13.0405 -11.5623
lclavicle 5.96354e-015 1.59028e-015
lhumerus -33.5597 -8.23165 91.7233
lradius 34.9334
lwrist -5.15296
lhand 0.949176 44.5973
lfingers 7.12502
lthumb 26.4992 72.7642
rfemur -5.88529 -4.18381 26.5133
rtibia 13.1762
rfoot -13.5353 -17.397
rtoes 19.834
lfemur -8.96066 -5.95037 -13.292
ltibia 15.8433
lfoot -13.0526 0.835035
ltoes 3.89081
1333
root -1.94633 17.5923 9.94088 6.52063 11.9592 0.0474483
lowerback -0.926883 -1.79227 3.16216
upperback -0.209568 -2.42475 3.18618
thorax 0.311518 -1.20796 1.4677
lowerneck -11.5132 -3.3935 -5.89915
upperneck 35.2237 -0.864346 -7.0073
head 14.013 -2.03978 -1.91769
rclavicle 1.27222e-014 -4.21423e-014
rhumerus -14.1631 -17.1099 -71.4431
rradius 18.9002
rwrist -13.9748
rhand -12.7691 17.8307
rfingers 7.12502
rthumb 13.3158 -11.7239
lclavicle 1.27222e-014 -4.21423e-014
lhumerus -33.6272 -8.27236 91.5967
lradius 35.1998
lwrist -4.86904
lhand 0.888953 45.0927
lfingers 7.12502
lthumb 26.4416 73.2683
rfemur -6.05179 -4.63125 26.1074
rtibia 13.7658
rfoot -13.8419 -17.0757
rtoes 19.6941
lfemur -8.68325 -5.71754 -13.7272
ltibia 15.5123
lfoot -12.9099 0.700214
ltoes 1.85806
1334
root -1.94623 17.5841 9.92771 6.52901 12.1749 0.0576579
lowerback -0.940972 -1.75249 3.21728
upperback -0.181522 -2.37409 3.18903
thorax 0.345939 -1.18205 1.4394
lowerneck -11.3466 -3.49524 -6.03697
upperneck 35.0927 -1.03708 -6.90186
head 13.9171 -2.11122 -1.86625
rclavicle 7.05686e-015 -7.95139e-015
rhumerus -13.4138 -17.6405 -71.2161
rradius 17.9704
rwrist -13.5141
rhand -12.8642 18.2516
rfingers 7.12502
rthumb 13.2241 -11.3089
lclavicle 7.05686e-015 -7.95139e-015
lhumerus -33.5579 -8.12535 91.6175
lradius 35.166
lwrist -5.03219
lhand 0.696639 44.7255
lfingers 7.12502
lthumb 26.2575 72.9287
rfemur -6.30188 -4.92167 26.1124
rtibia 14.1515
rfoot -13.9484 -16.9532
rtoes 19.5999
lfemur -8.71201 -5.63929 -13.737
ltibia 15.4007
lfoot -12.7661 0.644933
ltoes 0.0405845
1335
root -1.96096 17.5772 9.92867 6.56347 12.2202 0.0942165
lowerback -1.07249 -1.76351 2.98053
upperback -0.121923 -2.39649 3.17556
thorax 0.489998 -1.19244 1.55147
lowerneck -11.2699 -3.48095 -5.87857
upperneck 34.9708 -1.07137 -6.91074
head 13.8384 -2.10217 -1.89425
rclavicle 5.96354e-016 3.18055e-015
rhumerus -13.2133 -17.9576 -71.3287
rradius 18.1671
rwrist -13.4457
rhand -12.6252 17.4274
rfingers 7.12502
rthumb 13.4545 -12.1181
lclavicle 5.96354e-016 3.18055e-015
lhumerus -33.2633 -7.89074 91.3742
lradius 34.8629
lwrist -4.91159
lhand 0.68813 44.5518
lfingers 7.12502
lthumb 26.2493 72.7562
rfemur -6.52515 -4.55145 26.1457
rtibia 14.5193
rfoot -14.1515 -17.2914
rtoes 19.6805
lfemur -8.67263 -5.42374 -13.7232
ltibia 15.208
lfoot -12.6538 0.530648
ltoes -1.43073
1336
root -1.96864 17.5719 9.92744 6.38946 12.2904 -0.417966
lowerback -1.03864 -1.69217 3.39233
upperback -0.0735069 -2.30636 3.34136
thorax 0.510874 -1.14577 1.49381
lowerneck -11.2247 -3.53377 -5.94881
upperneck 34.9469 -1.15026 -6.86427
head 13.8186 -2.13704 -1.87256
rclavicle 1.88845e-014 9.54166e-015
rhumerus -12.9215 -17.4542 -71.2449
rradius 18.1149
rwrist -14.0546
rhand -12.8122 17.8661
rfingers 7.12502
rthumb 13.2742 -11.6912
lclavicle 1.88845e-014 9.54166e-015
lhumerus -33.3138 -7.59814 91.3391
lradius 35.0658
lwrist -5.21456
lhand 0.850441 43.9926
lfingers 7.12502
lthumb 26.4047 72.1737
rfemur -6.56396 -4.49085 26.7298
rtibia 14.7171
rfoot -14.1457 -17.348
rtoes 19.3818
lfemur -8.62034 -5.10457 -13.1354
ltibia 15.2042
lfoot -12.698 0.26993
ltoes -2.53527
1337
root -1.98047 17.5716 9.92926 6.41529 12.3513 -0.298742
lowerback -1.11383 -1.70729 3.09211
upperback -0.0326321 -2.32955 3.31636
thorax 0.605913 -1.15744 1.63176
lowerneck -11.2014 -3.51503 -5.82088
upperneck 34.9286 -1.15251 -6.88448
head 13.8005 -2.12299 -1.90131
rclavicle -4.90998e-014 4.45278e-014
rhumerus -12.6156 -17.4616 -71.2988
rradius 18.1066
rwrist -14.182
rhand -12.7132 17.3183
rfingers 7.12502
rthumb 13.3696 -12.2327
lclavicle -4.90998e-014 4.45278e-014
lhumerus -33.5383 -7.40705 91.1765
lradius 35.4053
lwrist -5.05175
lhand 1.1334 44.3307
lfingers 7.12502
lthumb 26.6755 72.4709
rfemur -6.60039 -4.2781 26.6491
rtibia 14.7822
rfoot -14.1044 -17.5839
rtoes 19.1458
lfemur -8.63317 -5.21218 -13.2161
ltibia 15.1991
lfoot -12.7213 0.328531
ltoes -3.39215
1338
root -1.98277 17.5719 9.93172 6.38981 12.4019 -0.286491
lowerback -1.17921 -1.63873 3.07852
upperback 0.0433729 -2.24501 3.30352
thorax 0.720073 -1.11402 1.62396
lowerneck -11.3019 -3.58008 -5.89998
upperneck 34.9874 -1.24094 -6.79827
head 13.8506 -2.16214 -1.87112
rclavicle -3.48867e-014 6.04305e-014
rhumerus -12.4607 -17.6097 -71.1957
rradius 18.1885
rwrist -14.1761
rhand -12.8323 17.4729
rfingers 7.12502
rthumb 13.2549 -12.0856
lclavicle -3.48867e-014 6.04305e-014
lhumerus -33.376 -7.58234 91.2376
lradius 35.3155
lwrist -4.97688
lhand 0.912606 44.2796
lfingers 7.12502
lthumb 26.4642 72.4518
rfemur -6.55824 -4.38769 26.6387
rtibia 14.7629
rfoot -13.9538 -17.5117
rtoes 18.7612
lfemur -8.61193 -5.15199 -13.2174
ltibia 15.219
lfoot -12.8036 0.205132
ltoes -4.04414
1339
root -1.98463 17.5744 9.93342 6.42651 12.5225 -0.334075
lowerback -1.26151 -1.66667 3.07253
upperback 0.0300334 -2.28606 3.30997
thorax 0.753285 -1.13433 1.63085
lowerneck -11.2604 -3.56418 -5.777
upperneck 35.0148 -1.23792 -6.83871
head 13.8494 -2.15003 -1.90804
rclavicle 3.34952e-014 1.74931e-014
rhumerus -12.2437 -17.6006 -71.2259
rradius 17.9878
rwrist -14.0867
rhand -13.0226 17.7246
rfingers 7.12502
rthumb 13.0714 -11.8458
lclavicle 3.34952e-014 1.74931e-014
lhumerus -33.2781 -7.41853 91.1406
lradius 34.9981
lwrist -4.9714
lhand 0.463 44.2253
lfingers 7.12502
lthumb 26.0338 72.4616
rfemur -6.65596 -4.72597 26.6957
rtibia 14.8441
rfoot -13.8441 -17.2693
rtoes 18.4469
lfemur -8.62563 -5.26075 -13.1427
ltibia 15.1119
lfoot -12.7742 0.174346
ltoes -4.50998
1340
root -1.98974 17.574 9.93975 6.38244 12.5903 -0.315904
lowerback -1.33935 -1.59122 3.03629
upperback 0.122019 -2.19338 3.29911
thorax 0.891707 -1.08673 1.63757
lowerneck -11.34 -3.65164 -5.88554
upperneck 35.0461 -1.36075 -6.73713
head 13.8831 -2.20471 -1.86991
rclavicle 4.1049e-014 -2.94201e-014
rhumerus -11.9606 -18.4955 -71.072
rradius 17.6803
rwrist -13.6674
rhand -12.7539 17.9205
rfingers 7.12502
rthumb 13.3304 -11.6332
lclavicle 4.1049e-014 -2.94201e-014
lhumerus -33.2351 -7.27697 91.1244
lradius 35.1715
lwrist -5.11478
lhand 1.04958 44.7063
lfingers 7.12502
lthumb 26.5953 72.8587
rfemur -6.60596 -5.03743 26.6822
rtibia 14.881
rfoot -13.7768 -17.0212
rtoes 18.3147
lfemur -8.53513 -5.14567 -13.1454
ltibia 15.0491
lfoot -12.8016 -0.0297941
ltoes -4.83412
1341
root -1.99168 17.5761 9.93771 6.39235 12.6082 -0.370505
lowerback -1.28624 -1.60302 3.07659
upperback 0.0828451 -2.20486 3.28065
thorax 0.81953 -1.09294 1.59821
lowerneck -11.2436 -3.62004 -5.73424
upperneck 35.04 -1.34464 -6.79315
head 13.8535 -2.18398 -1.91301
rclavicle -1.41137e-014 5.24792e-014
rhumerus -11.8538 -19.3279 -71.0966
rradius 17.6444
rwrist -12.7751
rhand -12.5996 17.539
rfingers 7.12502
rthumb 13.4791 -12.0048
lclavicle -1.41137e-014 5.24792e-014
lhumerus -33.1237 -7.176 91.0239
lradius 34.7418
lwrist -5.06491
lhand 1.14077 44.7962
lfingers 7.12502
lthumb 26.6826 72.9354
rfemur -6.67731 -5.08084 26.7386
rtibia 14.9493
rfoot -13.7339 -16.9614
rtoes 18.3699
lfemur -8.5249 -5.22766 -13.0786
ltibia 14.9626
lfoot -12.7456 0.0385839
ltoes -5.13968
1342
root -1.99714 17.5781 9.93894 6.46531 12.7038 -0.408229
lowerback -1.28076 -1.54011 3.13598
upperback -0.0157719 -2.11686 3.29068
thorax 0.712955 -1.04988 1.57886
lowerneck -11.0908 -3.68626 -5.86889
upperneck 35.0987 -1.43577 -6.72995
head 13.8493 -2.23097 -1.8761
rclavicle 2.127e-014 -3.02153e-014
rhumerus -11.9723 -18.7677 -70.9611
rradius 17.7005
rwrist -13.202
rhand -13.0144 16.856
rfingers 7.12502
rthumb 13.0793 -12.7139
lclavicle 2.127e-014 -3.02153e-014
lhumerus -33.0827 -7.18222 91.0213
lradius 34.3875
lwrist -5.2078
lhand 0.668606 44.2808
lfingers 7.12502
lthumb 26.2306 72.488
rfemur -6.77946 -5.28663 26.8062
rtibia 14.9558
rfoot -13.6226 -16.8238
rtoes 18.2734
lfemur -8.61476 -5.3867 -12.9971
ltibia 14.9335
lfoot -12.7048 0.124463
ltoes -5.34011
1343
root -2.00887 17.5778 9.94128 6.44348 12.6988 -0.310851
lowerback -1.06723 -1.54551 2.938
upperback -0.1051 -2.10591 3.23524
thorax 0.506487 -1.04706 1.64034
lowerneck -10.9746 -3.65822 -5.75136
upperneck 35.1783 -1.41659 -6.77006
head 13.8552 -2.21304 -1.90991
rclavicle 1.13307e-014 1.35174e-014
rhumerus -11.9466 -18.6693 -70.9905
rradius 17.5542
rwrist -13.4705
rhand -12.8739 17.4461
rfingers 7.12502
rthumb 13.2148 -12.115
lclavicle 1.13307e-014 1.35174e-014
lhumerus -33.5402 -7.01995 90.8541
lradius 34.8001
lwrist -5.24312
lhand 0.76987 43.6652
lfingers 7.12502
lthumb 26.3276 71.8579
rfemur -6.73779 -4.99936 26.7411
rtibia 14.9697
rfoot -13.5948 -17.0706
rtoes 18.2721
lfemur -8.55122 -5.34344 -13.0604
ltibia 14.8729
lfoot -12.6582 0.0633046
ltoes -5.30911
